<mxfile host="Electron" agent="Mozilla/5.0 (Macintosh; Intel Mac OS X 10_15_7) AppleWebKit/537.36 (KHTML, like Gecko) draw.io/24.7.17 Chrome/128.0.6613.36 Electron/32.0.1 Safari/537.36" version="24.7.17">
  <diagram name="Pagina-1" id="veC7NcbITNs584sBOoDX">
    <mxGraphModel dx="261" dy="189" grid="1" gridSize="10" guides="1" tooltips="1" connect="1" arrows="1" fold="1" page="1" pageScale="1" pageWidth="827" pageHeight="1169" math="0" shadow="0">
      <root>
        <mxCell id="0" />
        <mxCell id="1" parent="0" />
        <mxCell id="iAGr_fRBp7d0CicC5hqe-2" value="" style="group;rotation=-180;" vertex="1" connectable="0" parent="1">
          <mxGeometry x="310" y="402" width="20" height="38" as="geometry" />
        </mxCell>
        <mxCell id="iAGr_fRBp7d0CicC5hqe-3" value="" style="endArrow=none;html=1;rounded=0;fillColor=#e1d5e7;strokeColor=#000000;" edge="1" parent="iAGr_fRBp7d0CicC5hqe-2" source="iAGr_fRBp7d0CicC5hqe-4">
          <mxGeometry width="50" height="50" relative="1" as="geometry">
            <mxPoint x="10" y="8" as="sourcePoint" />
            <mxPoint x="10" y="38" as="targetPoint" />
          </mxGeometry>
        </mxCell>
        <mxCell id="iAGr_fRBp7d0CicC5hqe-4" value="" style="shape=waypoint;sketch=0;fillStyle=solid;size=6;pointerEvents=1;points=[];fillColor=#e1d5e7;resizable=0;rotatable=0;perimeter=centerPerimeter;snapToPoint=1;strokeColor=#000000;rotation=-180;" vertex="1" parent="iAGr_fRBp7d0CicC5hqe-2">
          <mxGeometry width="20" height="20" as="geometry" />
        </mxCell>
        <mxCell id="iAGr_fRBp7d0CicC5hqe-5" value="X" style="text;html=1;align=center;verticalAlign=middle;whiteSpace=wrap;rounded=0;" vertex="1" parent="1">
          <mxGeometry x="305" y="384" width="30" height="30" as="geometry" />
        </mxCell>
        <mxCell id="iAGr_fRBp7d0CicC5hqe-13" value="Y" style="text;html=1;align=center;verticalAlign=middle;whiteSpace=wrap;rounded=0;" vertex="1" parent="1">
          <mxGeometry x="505" y="384" width="30" height="30" as="geometry" />
        </mxCell>
        <mxCell id="iAGr_fRBp7d0CicC5hqe-14" value="" style="group;rotation=-180;" vertex="1" connectable="0" parent="1">
          <mxGeometry x="510" y="402" width="20" height="38" as="geometry" />
        </mxCell>
        <mxCell id="iAGr_fRBp7d0CicC5hqe-15" value="" style="endArrow=none;html=1;rounded=0;fillColor=#e1d5e7;strokeColor=#000000;" edge="1" parent="iAGr_fRBp7d0CicC5hqe-14" source="iAGr_fRBp7d0CicC5hqe-16">
          <mxGeometry width="50" height="50" relative="1" as="geometry">
            <mxPoint x="10" y="8" as="sourcePoint" />
            <mxPoint x="10" y="38" as="targetPoint" />
          </mxGeometry>
        </mxCell>
        <mxCell id="iAGr_fRBp7d0CicC5hqe-16" value="" style="shape=waypoint;sketch=0;fillStyle=solid;size=6;pointerEvents=1;points=[];fillColor=#e1d5e7;resizable=0;rotatable=0;perimeter=centerPerimeter;snapToPoint=1;strokeColor=#000000;rotation=-180;" vertex="1" parent="iAGr_fRBp7d0CicC5hqe-14">
          <mxGeometry width="20" height="20" as="geometry" />
        </mxCell>
        <mxCell id="iAGr_fRBp7d0CicC5hqe-17" value="" style="group;rotation=-90;" vertex="1" connectable="0" parent="1">
          <mxGeometry x="560" y="440" width="20" height="38" as="geometry" />
        </mxCell>
        <mxCell id="iAGr_fRBp7d0CicC5hqe-18" value="" style="endArrow=none;html=1;rounded=0;fillColor=#e1d5e7;strokeColor=#000000;" edge="1" parent="iAGr_fRBp7d0CicC5hqe-17" source="iAGr_fRBp7d0CicC5hqe-19">
          <mxGeometry width="50" height="50" relative="1" as="geometry">
            <mxPoint x="21" y="19" as="sourcePoint" />
            <mxPoint x="-9" y="19" as="targetPoint" />
          </mxGeometry>
        </mxCell>
        <mxCell id="iAGr_fRBp7d0CicC5hqe-19" value="" style="shape=waypoint;sketch=0;fillStyle=solid;size=6;pointerEvents=1;points=[];fillColor=#e1d5e7;resizable=0;rotatable=0;perimeter=centerPerimeter;snapToPoint=1;strokeColor=#000000;rotation=-90;" vertex="1" parent="iAGr_fRBp7d0CicC5hqe-17">
          <mxGeometry x="9" y="9" width="20" height="20" as="geometry" />
        </mxCell>
        <mxCell id="iAGr_fRBp7d0CicC5hqe-20" value="" style="group;rotation=-90;" vertex="1" connectable="0" parent="1">
          <mxGeometry x="560" y="530" width="20" height="38" as="geometry" />
        </mxCell>
        <mxCell id="iAGr_fRBp7d0CicC5hqe-21" value="" style="endArrow=none;html=1;rounded=0;fillColor=#e51400;strokeColor=#B20000;" edge="1" parent="iAGr_fRBp7d0CicC5hqe-20" source="iAGr_fRBp7d0CicC5hqe-22">
          <mxGeometry width="50" height="50" relative="1" as="geometry">
            <mxPoint x="21" y="19" as="sourcePoint" />
            <mxPoint x="-9" y="19" as="targetPoint" />
          </mxGeometry>
        </mxCell>
        <mxCell id="iAGr_fRBp7d0CicC5hqe-22" value="" style="shape=waypoint;sketch=0;fillStyle=solid;size=6;pointerEvents=1;points=[];fillColor=#e51400;resizable=0;rotatable=0;perimeter=centerPerimeter;snapToPoint=1;strokeColor=#B20000;rotation=-90;fontColor=#ffffff;" vertex="1" parent="iAGr_fRBp7d0CicC5hqe-20">
          <mxGeometry x="9" y="9" width="20" height="20" as="geometry" />
        </mxCell>
        <mxCell id="iAGr_fRBp7d0CicC5hqe-23" value="Cin" style="text;html=1;align=center;verticalAlign=middle;whiteSpace=wrap;rounded=0;" vertex="1" parent="1">
          <mxGeometry x="580" y="444" width="30" height="30" as="geometry" />
        </mxCell>
        <mxCell id="iAGr_fRBp7d0CicC5hqe-24" value="Cout" style="text;html=1;align=center;verticalAlign=middle;whiteSpace=wrap;rounded=0;" vertex="1" parent="1">
          <mxGeometry x="580" y="534" width="30" height="30" as="geometry" />
        </mxCell>
        <mxCell id="iAGr_fRBp7d0CicC5hqe-25" value="" style="group;rotation=0;" vertex="1" connectable="0" parent="1">
          <mxGeometry x="510" y="560" width="20" height="38" as="geometry" />
        </mxCell>
        <mxCell id="iAGr_fRBp7d0CicC5hqe-26" value="" style="endArrow=none;html=1;rounded=0;fillColor=#e51400;strokeColor=#B20000;" edge="1" parent="iAGr_fRBp7d0CicC5hqe-25" source="iAGr_fRBp7d0CicC5hqe-27">
          <mxGeometry width="50" height="50" relative="1" as="geometry">
            <mxPoint x="10" y="30" as="sourcePoint" />
            <mxPoint x="10" as="targetPoint" />
          </mxGeometry>
        </mxCell>
        <mxCell id="iAGr_fRBp7d0CicC5hqe-27" value="" style="shape=waypoint;sketch=0;fillStyle=solid;size=6;pointerEvents=1;points=[];fillColor=#e51400;resizable=0;rotatable=0;perimeter=centerPerimeter;snapToPoint=1;strokeColor=#B20000;rotation=0;fontColor=#ffffff;" vertex="1" parent="iAGr_fRBp7d0CicC5hqe-25">
          <mxGeometry y="18" width="20" height="20" as="geometry" />
        </mxCell>
        <mxCell id="iAGr_fRBp7d0CicC5hqe-28" value="Sum" style="text;html=1;align=center;verticalAlign=middle;whiteSpace=wrap;rounded=0;" vertex="1" parent="1">
          <mxGeometry x="505" y="590" width="30" height="30" as="geometry" />
        </mxCell>
        <mxCell id="iAGr_fRBp7d0CicC5hqe-1" value="Carry_Look_Ahead" style="rounded=0;whiteSpace=wrap;html=1;" vertex="1" parent="1">
          <mxGeometry x="280" y="440" width="280" height="120" as="geometry" />
        </mxCell>
      </root>
    </mxGraphModel>
  </diagram>
</mxfile>
